# Blender v2.74 (sub 0) OBJ File: 'mountain.blend'
# www.blender.org
mtllib railing2.mtl
o Cube.001_Cube.000
v 0.890989 0.798826 -1.187780
v 0.890989 0.321493 -1.882036
v 0.890926 0.011400 -1.754291
v 0.889141 0.398148 -1.750527
v 0.895606 0.011400 -1.753296
v 0.892772 0.398086 -1.750484
v 0.899477 0.011400 -1.750484
v 0.896084 0.398662 -1.749109
v 0.901870 0.011400 -1.746340
v 0.898504 0.399776 -1.746640
v 0.902370 0.011400 -1.741581
v 0.899614 0.401235 -1.743505
v 0.900892 0.011400 -1.737030
v 0.899221 0.402787 -1.740245
v 0.897690 0.011400 -1.733474
v 0.897394 0.404164 -1.737424
v 0.893318 0.011400 -1.731528
v 0.894449 0.405127 -1.735529
v 0.888533 0.011400 -1.731528
v 0.890894 0.405510 -1.734889
v 0.884162 0.011400 -1.733474
v 0.887345 0.405247 -1.735615
v 0.880960 0.011400 -1.737030
v 0.884415 0.404384 -1.737579
v 0.879481 0.011400 -1.741581
v 0.882611 0.403069 -1.740444
v 0.879981 0.011400 -1.746340
v 0.882244 0.401529 -1.743713
v 0.882374 0.011400 -1.750484
v 0.883379 0.400032 -1.746822
v 0.886245 0.011400 -1.753296
v 0.885818 0.398836 -1.749232
v 0.895669 0.320672 -1.881472
v 0.895669 0.798005 -1.187216
v 0.899540 0.318356 -1.879879
v 0.899540 0.795689 -1.185623
v 0.901933 0.314940 -1.877530
v 0.901933 0.792273 -1.183275
v 0.902433 0.311019 -1.874835
v 0.902433 0.788352 -1.180579
v 0.900954 0.307270 -1.872256
v 0.900954 0.784602 -1.178001
v 0.897753 0.304339 -1.870241
v 0.897753 0.781672 -1.175986
v 0.893381 0.302734 -1.869138
v 0.893381 0.780067 -1.174883
v 0.888596 0.302734 -1.869138
v 0.888596 0.780067 -1.174883
v 0.884225 0.304339 -1.870241
v 0.884225 0.781672 -1.175986
v 0.881023 0.307270 -1.872256
v 0.881023 0.784602 -1.178001
v 0.879544 0.311019 -1.874835
v 0.879544 0.788352 -1.180579
v 0.880044 0.314940 -1.877530
v 0.880044 0.792273 -1.183275
v 0.882437 0.318356 -1.879879
v 0.882437 0.795689 -1.185623
v 0.886308 0.320672 -1.881472
v 0.886308 0.798005 -1.187216
v 0.889897 0.508176 -1.589316
v 0.890926 0.168206 -1.592973
v 0.895606 0.168206 -1.591978
v 0.893635 0.508659 -1.589172
v 0.899477 0.168206 -1.589166
v 0.896904 0.509823 -1.587695
v 0.901870 0.168206 -1.585022
v 0.899140 0.511468 -1.585141
v 0.902370 0.168206 -1.580263
v 0.899955 0.513309 -1.581952
v 0.900892 0.168206 -1.575712
v 0.899209 0.515027 -1.578679
v 0.897690 0.168206 -1.572156
v 0.897031 0.516327 -1.575887
v 0.893318 0.168206 -1.570210
v 0.893797 0.516982 -1.574060
v 0.888533 0.168206 -1.570210
v 0.890067 0.516880 -1.573514
v 0.884162 0.168206 -1.572156
v 0.886485 0.516038 -1.574342
v 0.880960 0.168206 -1.575712
v 0.883671 0.514602 -1.576402
v 0.879481 0.168206 -1.580263
v 0.882111 0.512820 -1.579338
v 0.879981 0.168206 -1.585022
v 0.882076 0.511001 -1.582642
v 0.882374 0.168206 -1.589166
v 0.883570 0.509458 -1.585742
v 0.886245 0.168206 -1.591978
v 0.886337 0.508459 -1.588103
v 0.889642 0.638664 -1.406244
v 0.890926 0.268677 -1.410120
v 0.895606 0.268677 -1.409125
v 0.893208 0.638968 -1.406155
v 0.899477 0.268677 -1.406312
v 0.896380 0.639873 -1.404762
v 0.901870 0.268677 -1.402168
v 0.898608 0.641221 -1.402305
v 0.902370 0.268677 -1.397409
v 0.899509 0.642780 -1.399210
v 0.900892 0.268677 -1.392858
v 0.898925 0.644279 -1.396011
v 0.897690 0.268677 -1.389302
v 0.896958 0.645460 -1.393263
v 0.893318 0.268677 -1.387356
v 0.893948 0.646119 -1.391439
v 0.888533 0.268677 -1.387356
v 0.890415 0.646141 -1.390855
v 0.884162 0.268677 -1.389302
v 0.886971 0.645522 -1.391613
v 0.880960 0.268677 -1.392858
v 0.884211 0.644371 -1.393581
v 0.879481 0.268677 -1.397409
v 0.882611 0.642885 -1.396419
v 0.879981 0.268677 -1.402168
v 0.882450 0.641321 -1.399636
v 0.882374 0.268677 -1.406312
v 0.883754 0.639951 -1.402676
v 0.886245 0.268677 -1.409125
v 0.886298 0.639011 -1.405013
v 0.889441 0.762553 -1.220460
v 0.890926 0.369203 -1.224403
v 0.895606 0.369203 -1.223408
v 0.892883 0.763017 -1.220536
v 0.899478 0.369203 -1.220596
v 0.895987 0.763957 -1.219290
v 0.901870 0.369203 -1.216452
v 0.898215 0.765211 -1.216938
v 0.902370 0.369203 -1.211693
v 0.899183 0.766562 -1.213888
v 0.900892 0.369203 -1.207142
v 0.898723 0.767776 -1.210666
v 0.897690 0.369203 -1.203586
v 0.896915 0.768644 -1.207829
v 0.893318 0.369203 -1.201640
v 0.894072 0.769015 -1.205869
v 0.888533 0.369203 -1.201640
v 0.890684 0.768825 -1.205124
v 0.884162 0.369203 -1.203586
v 0.887338 0.768108 -1.205722
v 0.880960 0.369203 -1.207142
v 0.884613 0.766986 -1.207561
v 0.879481 0.369203 -1.211693
v 0.882979 0.765655 -1.210322
v 0.879981 0.369203 -1.216452
v 0.882719 0.764344 -1.213528
v 0.882374 0.369203 -1.220596
v 0.883878 0.763279 -1.216625
v 0.886245 0.369203 -1.223408
v 0.886256 0.762646 -1.219077
v 0.890989 0.827808 -1.145627
v 0.895669 0.826987 -1.145063
v 0.899540 0.824670 -1.143470
v 0.901933 0.821255 -1.141122
v 0.902433 0.817334 -1.138426
v 0.900954 0.813584 -1.135848
v 0.897753 0.810653 -1.133832
v 0.893381 0.809049 -1.132729
v 0.888596 0.809049 -1.132729
v 0.884225 0.810653 -1.133832
v 0.881023 0.813584 -1.135848
v 0.879544 0.817334 -1.138426
v 0.880044 0.821255 -1.141122
v 0.882437 0.824670 -1.143470
v 0.886308 0.826987 -1.145063
vn 0.986300 0.006900 -0.164900
vn -0.866100 0.411900 -0.283200
vn 0.124000 0.009200 -0.992200
vn 0.000000 -1.000000 0.000000
vn -0.994500 0.086100 -0.059200
vn 0.503100 0.008700 -0.864200
vn 0.763700 0.008800 0.645500
vn -0.951000 -0.254700 0.175100
vn 0.807900 0.007900 -0.589300
vn 0.445100 0.009900 0.895400
vn -0.743200 -0.551300 0.379100
vn 0.979500 0.007100 -0.201100
vn 0.063900 0.010100 0.997900
vn -0.406900 -0.752700 0.517500
vn 0.972800 0.007000 0.231600
vn -0.330300 0.009300 0.943800
vn 0.000000 -0.824000 0.566600
vn 0.786000 0.007600 0.618200
vn -0.683400 0.008000 0.730000
vn 0.406900 -0.752700 0.517500
vn 0.465600 0.008500 0.884900
vn -0.927200 0.007000 0.374600
vn 0.743200 -0.551300 0.379100
vn 0.076900 0.009000 0.997000
vn -0.998200 0.007100 -0.059100
vn 0.951100 -0.254600 0.175100
vn -0.319900 0.008900 0.947400
vn -0.880400 0.008300 -0.474200
vn 0.994500 0.086100 -0.059200
vn -0.669700 0.008200 0.742600
vn -0.000000 -0.566600 -0.824000
vn 0.866100 0.411900 -0.283200
vn -0.914800 0.007400 0.403700
vn -0.587600 0.666700 -0.458400
vn 0.587600 0.666700 -0.458400
vn -0.999800 0.007000 -0.018000
vn -0.208200 0.806000 -0.554100
vn 0.208200 0.806000 -0.554100
vn -0.898700 0.007300 -0.438500
vn 0.020400 0.903700 -0.427700
vn -0.274400 0.008900 -0.961600
vn -0.636600 0.008200 -0.771100
vn 0.962300 0.007500 0.271900
vn 0.821800 0.007500 -0.569700
vn -0.613800 0.009600 -0.789400
vn 0.513800 0.008800 -0.857800
vn -0.258400 0.010300 -0.966000
vn 0.133500 0.010000 -0.991000
vn -0.094100 0.872500 -0.479500
vn 0.984200 0.007600 -0.177000
vn 0.774100 0.008800 0.633000
vn 0.455500 0.009600 0.890200
vn 0.070000 0.009800 0.997500
vn -0.327700 0.009300 0.944700
vn -0.680500 0.008400 0.732700
vn -0.923600 0.007700 0.383200
vn -0.999000 0.007700 -0.043900
vn -0.888500 0.008400 -0.458800
vn 0.966700 0.007900 0.255800
vn 0.818400 0.008100 -0.574600
vn -0.625100 0.009400 -0.780500
vn 0.511800 0.009000 -0.859000
vn -0.266800 0.010000 -0.963700
vn 0.130000 0.009800 -0.991500
vn -0.066000 0.898800 -0.433400
vn 0.982500 0.007800 -0.186100
vn 0.787600 0.008900 0.616100
vn 0.476500 0.009300 0.879100
vn 0.090600 0.009300 0.995800
vn -0.313900 0.008800 0.949400
vn -0.673900 0.008100 0.738800
vn -0.920600 0.007800 0.390400
vn -0.999500 0.008000 -0.031500
vn -0.897300 0.008700 -0.441400
vn 0.970600 0.008300 0.240700
vn 0.814100 0.008000 -0.580700
vn -0.643700 0.009300 -0.765200
vn 0.502000 0.008500 -0.864800
vn -0.289300 0.009500 -0.957200
vn 0.112000 0.009200 -0.993700
vn -0.132100 0.921200 -0.366000
vn -0.000000 0.566600 0.824000
vn -0.994500 0.086200 -0.059200
vn -0.743200 -0.551300 0.379000
vn -0.866100 0.412000 -0.283200
vn 0.000000 -0.824000 0.566500
vn -0.406800 -0.752700 0.517500
vn 0.951000 -0.254700 0.175100
usemtl Railing
s off
f 67//1 68//1 70//1 69//1
f 55//2 56//2 58//2 57//2
f 3//3 4//3 6//3 5//3
f 62//4 63//4 65//4 67//4 69//4 71//4 73//4 75//4 77//4 79//4 81//4 83//4 85//4 87//4 89//4
f 53//5 54//5 56//5 55//5
f 5//6 6//6 8//6 7//6
f 71//7 72//7 74//7 73//7
f 51//8 52//8 54//8 53//8
f 7//9 8//9 10//9 9//9
f 73//10 74//10 76//10 75//10
f 49//11 50//11 52//11 51//11
f 9//12 10//12 12//12 11//12
f 75//13 76//13 78//13 77//13
f 47//14 48//14 50//14 49//14
f 11//15 12//15 14//15 13//15
f 77//16 78//16 80//16 79//16
f 45//17 46//17 48//17 47//17
f 13//18 14//18 16//18 15//18
f 79//19 80//19 82//19 81//19
f 43//20 44//20 46//20 45//20
f 15//21 16//21 18//21 17//21
f 81//22 82//22 84//22 83//22
f 41//23 42//23 44//23 43//23
f 17//24 18//24 20//24 19//24
f 83//25 84//25 86//25 85//25
f 39//26 40//26 42//26 41//26
f 19//27 20//27 22//27 21//27
f 85//28 86//28 88//28 87//28
f 37//29 38//29 40//29 39//29
f 21//30 22//30 24//30 23//30
f 2//31 33//31 35//31 37//31 39//31 41//31 43//31 45//31 47//31 49//31 51//31 53//31 55//31 57//31 59//31
f 35//32 36//32 38//32 37//32
f 23//33 24//33 26//33 25//33
f 57//34 58//34 60//34 59//34
f 33//35 34//35 36//35 35//35
f 25//36 26//36 28//36 27//36
f 59//37 60//37 1//37 2//37
f 2//38 1//38 34//38 33//38
f 27//39 28//39 30//39 29//39
f 6//40 4//40 32//40 30//40 28//40 26//40 24//40 22//40 20//40 18//40 16//40 14//40 12//40 10//40 8//40
f 31//41 32//41 4//41 3//41
f 29//42 30//42 32//42 31//42
f 69//43 70//43 72//43 71//43
f 60//34 58//34 164//34 165//34
f 3//4 5//4 7//4 9//4 11//4 13//4 15//4 17//4 19//4 21//4 23//4 25//4 27//4 29//4 31//4
f 65//44 66//44 68//44 67//44
f 87//45 88//45 90//45 89//45
f 63//46 64//46 66//46 65//46
f 89//47 90//47 61//47 62//47
f 62//48 61//48 64//48 63//48
f 64//49 61//49 90//49 88//49 86//49 84//49 82//49 80//49 78//49 76//49 74//49 72//49 70//49 68//49 66//49
f 97//50 98//50 100//50 99//50
f 92//4 93//4 95//4 97//4 99//4 101//4 103//4 105//4 107//4 109//4 111//4 113//4 115//4 117//4 119//4
f 101//51 102//51 104//51 103//51
f 103//52 104//52 106//52 105//52
f 105//53 106//53 108//53 107//53
f 107//54 108//54 110//54 109//54
f 109//55 110//55 112//55 111//55
f 111//56 112//56 114//56 113//56
f 113//57 114//57 116//57 115//57
f 115//58 116//58 118//58 117//58
f 99//59 100//59 102//59 101//59
f 95//60 96//60 98//60 97//60
f 117//61 118//61 120//61 119//61
f 93//62 94//62 96//62 95//62
f 119//63 120//63 91//63 92//63
f 92//64 91//64 94//64 93//64
f 94//65 91//65 120//65 118//65 116//65 114//65 112//65 110//65 108//65 106//65 104//65 102//65 100//65 98//65 96//65
f 127//66 128//66 130//66 129//66
f 122//4 123//4 125//4 127//4 129//4 131//4 133//4 135//4 137//4 139//4 141//4 143//4 145//4 147//4 149//4
f 131//67 132//67 134//67 133//67
f 133//68 134//68 136//68 135//68
f 135//69 136//69 138//69 137//69
f 137//70 138//70 140//70 139//70
f 139//71 140//71 142//71 141//71
f 141//72 142//72 144//72 143//72
f 143//73 144//73 146//73 145//73
f 145//74 146//74 148//74 147//74
f 129//75 130//75 132//75 131//75
f 125//76 126//76 128//76 127//76
f 147//77 148//77 150//77 149//77
f 123//78 124//78 126//78 125//78
f 149//79 150//79 121//79 122//79
f 122//80 121//80 124//80 123//80
f 124//81 121//81 150//81 148//81 146//81 144//81 142//81 140//81 138//81 136//81 134//81 132//81 130//81 128//81 126//81
f 152//82 151//82 165//82 164//82 163//82 162//82 161//82 160//82 159//82 158//82 157//82 156//82 155//82 154//82 153//82
f 56//83 54//83 162//83 163//83
f 34//38 1//38 151//38 152//38
f 36//35 34//35 152//35 153//35
f 38//32 36//32 153//32 154//32
f 40//29 38//29 154//29 155//29
f 52//84 50//84 160//84 161//84
f 1//37 60//37 165//37 151//37
f 58//85 56//85 163//85 164//85
f 44//23 42//23 156//23 157//23
f 46//20 44//20 157//20 158//20
f 48//86 46//86 158//86 159//86
f 50//87 48//87 159//87 160//87
f 42//88 40//88 155//88 156//88
f 54//8 52//8 161//8 162//8
